<svg xmlns="http://www.w3.org/2000/svg" xmlns:xlink="http://www.w3.org/1999/xlink" xmlns:serif="http://www.serif.com/" width="100%" height="100%" viewBox="0 0 482 481" xml:space="preserve" style="fill-rule:evenodd;clip-rule:evenodd;stroke-linejoin:round;stroke-miterlimit:2;">    <g transform="matrix(1,0,0,1,-6.36311,-1.88745)">        <g id="Logo" transform="matrix(0.990015,0,0,0.990015,2.46571,-0.0458692)">            <g transform="matrix(1.13065,0,0,1.0201,-34.7725,-5.75931)">                <path d="M432.589,207.572C432.589,127.265 373.765,62.066 301.311,62.066L154.874,62.066C101.678,62.066 58.491,109.935 58.491,168.895L58.491,296.963C58.491,373.791 114.766,436.165 184.082,436.165L338.803,436.165C390.565,436.165 432.589,389.587 432.589,332.215L432.589,207.572Z" style="fill:#f58220;"></path>            </g>            <g transform="matrix(1.0201,0,0,1.0201,-3.80754,-5.75931)">                <path d="M431.898,161.778C432.355,165.888 432.589,170.065 432.589,174.296L432.589,323.935C432.589,385.877 382.301,436.165 320.36,436.165L170.72,436.165C160.101,436.165 149.824,434.687 140.085,431.926L96.839,475.171C85.68,486.33 67.56,486.33 56.4,475.171L15.961,434.732C4.802,423.573 4.802,405.452 15.961,394.293L61.296,348.959C59.46,340.911 58.491,332.536 58.491,323.935L58.491,174.296C58.491,112.355 108.779,62.066 170.72,62.066L320.36,62.066C322.667,62.066 324.958,62.136 327.23,62.274L371.38,18.124C385.465,4.039 408.337,4.039 422.423,18.124L473.465,69.167C487.551,83.253 487.551,106.124 473.465,120.21L431.898,161.778Z" style="fill:url(#_Linear1);"></path>            </g>            <g transform="matrix(1.15925,-1.15925,0.903309,0.903309,-329.322,444.908)">                <path d="M312.146,178.848L478.57,178.848C484.957,178.848 490.143,185.502 490.143,193.699L490.143,223.401C490.143,231.598 484.957,238.252 478.57,238.252L273.872,238.252C267.485,238.252 262.3,231.598 262.3,223.401L262.3,193.699C262.3,192.864 262.353,192.046 262.457,191.249L262.457,147.345C262.457,138.546 268.023,131.403 274.879,131.403L299.724,131.403C306.58,131.403 312.146,138.546 312.146,147.345L312.146,178.848Z" style="fill:#fff;"></path>            </g>        </g>    </g>    <defs>        <linearGradient id="_Linear1" x1="0" y1="0" x2="1" y2="0" gradientUnits="userSpaceOnUse" gradientTransform="matrix(410.956,-412.798,412.798,410.956,40.5804,457.134)"><stop offset="0" style="stop-color:#042653;stop-opacity:1"></stop><stop offset="0.52" style="stop-color:#01407f;stop-opacity:1"></stop><stop offset="1" style="stop-color:#004a8f;stop-opacity:1"></stop></linearGradient>    </defs></svg>