<svg xmlns="http://www.w3.org/2000/svg" xmlns:xlink="http://www.w3.org/1999/xlink" xmlns:serif="http://www.serif.com/" width="100%" height="100%" viewBox="0 0 2203 484" xml:space="preserve" style="fill-rule:evenodd;clip-rule:evenodd;stroke-linejoin:round;stroke-miterlimit:2;">    <g id="Control" transform="matrix(1,0,0,1,0,65.9268)">        <path d="M2161.25,61.23C2164.84,61.37 2168.47,62.01 2171.92,62C2182.03,61.987 2192.14,61.997 2202.25,62.03C2202.41,62.03 2202.57,61.95 2202.72,61.79C2202.75,61.937 2202.85,62.01 2203,62.01L2203,90.25L2202.81,286.22C2202.81,286.785 2202.35,287.25 2201.78,287.25L2160.76,287.3C2160.31,287.3 2159.94,286.934 2159.94,286.49C2159.96,211.67 2159.96,137.007 2159.95,62.5C2159.95,61.52 2160.38,61.097 2161.25,61.23Z" style="fill:#004a8f;fill-rule:nonzero;"></path>        <path d="M1316.62,205.26L1316.91,147.45C1316.73,132.22 1319.56,117.49 1324.77,102.51C1330.25,86.743 1340.66,75.487 1356,68.74C1375.46,60.18 1398.49,60.84 1419.8,62.62C1423.05,62.893 1426.22,63.31 1429.29,63.87C1436.04,65.11 1442.72,65.93 1449.52,67.44C1453.29,68.273 1457.03,68.977 1460.75,69.55C1461.47,69.656 1462,70.292 1461.98,71.02L1461.03,105.27C1461,106.357 1460.46,106.753 1459.41,106.46C1457.56,105.94 1455.58,105.523 1453.48,105.21C1441.29,103.403 1428.51,102.327 1415.12,101.98C1405.59,101.733 1397.43,102.027 1390.64,102.86C1372.08,105.15 1365.13,121.53 1363.12,138.3C1360.86,157.167 1360.11,176.067 1360.88,195C1361.21,203.353 1362.15,211.743 1363.7,220.17C1364.73,225.817 1366.26,230.67 1368.29,234.73C1369.6,237.357 1371.73,240 1374.66,242.66C1381.69,249.02 1392.99,251.13 1402.26,251.34C1409.68,251.5 1416.18,251.377 1421.77,250.97C1434.96,250.01 1447.68,248.637 1459.92,246.85C1459.97,246.843 1460.01,246.839 1460.06,246.839C1460.57,246.839 1460.99,247.252 1461,247.76L1461.71,282.56C1461.73,283.322 1461.19,283.991 1460.45,284.14C1452.3,285.773 1444.17,287.25 1436.06,288.57C1428.93,289.723 1420.01,290.573 1409.3,291.12C1396.27,291.78 1383.94,291.027 1372.33,288.86C1362.98,287.113 1354.99,284.113 1348.36,279.86C1343.26,276.6 1338.1,272.03 1334.49,267.01C1328.02,258.037 1323.42,248.217 1320.69,237.55C1318,227.03 1316.64,216.267 1316.62,205.26Z" style="fill:#004a8f;fill-rule:nonzero;"></path>        <path d="M1798.52,124.01C1798.87,118.13 1798.5,111.82 1798.53,105.68C1798.58,94.853 1798.61,83.753 1798.64,72.38C1798.65,69.83 1798.29,66.62 1798.44,63.84C1798.48,63.14 1798.85,62.79 1799.54,62.79L1840.12,62.78C1840.84,62.78 1841.2,63.143 1841.2,63.87L1841.14,124.59C1841.14,124.593 1841.14,124.597 1841.14,124.6C1841.14,125.247 1841.68,125.78 1842.33,125.78C1842.33,125.78 1842.34,125.78 1842.34,125.78L1879.45,125.72C1879.85,125.72 1880.17,126.05 1880.17,126.45L1880.06,161.58C1880.05,162.5 1879.59,162.96 1878.67,162.96L1842.19,162.97C1841.46,162.97 1841.09,163.337 1841.09,164.07C1841.21,182.35 1841.21,202.077 1841.1,223.25C1841.07,228.237 1841.14,233.553 1841.31,239.2C1841.41,242.46 1841.93,244.87 1842.87,246.43C1845.86,251.39 1850.09,252.62 1855.57,252.4C1863.88,252.067 1871.22,251.82 1877.61,251.66C1878.19,251.643 1878.68,252.101 1878.71,252.68L1880.33,285.56C1880.35,285.979 1880.07,286.357 1879.67,286.46C1861.29,291.25 1841,293.9 1823.51,287.76C1813.43,284.22 1806.78,277.62 1803.56,267.96C1799.8,256.69 1798.75,243.95 1798.65,232C1798.46,208.727 1798.51,186.05 1798.82,163.97C1798.82,163.967 1798.82,163.963 1798.82,163.96C1798.82,163.357 1798.32,162.86 1797.72,162.86C1797.72,162.86 1797.71,162.86 1797.71,162.86L1781,163.01C1781,163.01 1780.99,163.01 1780.99,163.01C1780.31,163.01 1779.75,162.45 1779.75,161.77C1779.75,161.763 1779.75,161.757 1779.75,161.75L1780.16,126.98C1780.17,126.187 1780.57,125.79 1781.36,125.79L1796.72,125.72C1797.85,125.713 1798.45,125.143 1798.52,124.01Z" style="fill:#004a8f;fill-rule:nonzero;"></path>        <path d="M1470.57,175.21C1473.03,162.89 1479.07,149.75 1487.33,140.38C1498.18,128.06 1517.29,122.82 1533.51,122.13C1551.68,121.36 1569.63,123.32 1584.69,132.93C1601.07,143.36 1609.27,164.8 1611.91,183.81C1613.72,196.817 1613.86,210.843 1612.34,225.89C1611.25,236.69 1608.39,246.99 1603.76,256.79C1598.63,267.683 1591.25,275.887 1581.62,281.4C1575.61,284.85 1568.66,287.72 1561.97,289.13C1541.3,293.5 1517.33,291.99 1498.8,281.21C1483.22,272.14 1474.02,254.54 1470.47,237.07C1466.36,216.777 1466.39,196.157 1470.57,175.21ZM1569.37,221.87C1570.53,209.343 1570.21,196.593 1568.42,183.62C1567.85,179.467 1566.39,175.117 1564.06,170.57C1558.66,160.04 1545.79,157.95 1535.23,159.19C1524.6,160.437 1517.7,166.157 1514.52,176.35C1512.97,181.33 1511.99,185.86 1511.58,189.94C1510.23,203.613 1510.43,215.983 1512.2,227.05C1513.14,232.923 1514.88,238.273 1517.43,243.1C1521.08,250.01 1529.79,253.84 1537.3,254.29C1544.59,254.73 1551.51,253.87 1557.68,249.61C1566.18,243.75 1568.5,231.3 1569.37,221.87Z" style="fill:#004a8f;fill-rule:nonzero;"></path>        <path d="M1673.25,167.38L1673.33,286.66C1673.33,286.984 1673.07,287.25 1672.75,287.25L1631.7,287.33C1631.08,287.33 1630.56,286.82 1630.56,286.2L1630.54,126.95C1630.54,126.264 1631.11,125.7 1631.8,125.7L1671.87,125.77C1671.9,125.77 1671.94,125.771 1671.97,125.774C1672.66,125.831 1673.18,126.449 1673.12,127.143C1673.12,127.176 1673.12,127.208 1673.11,127.24L1672.25,132.44C1672.24,132.525 1672.23,132.611 1672.23,132.698C1672.23,133.553 1672.93,134.258 1673.79,134.258C1674.08,134.258 1674.36,134.179 1674.6,134.03C1686.7,126.74 1700.17,121.65 1714.66,121.95C1724.61,122.15 1733.79,123.72 1742.48,128.35C1750.06,132.38 1755.02,137.84 1758.73,145.42C1761.4,150.867 1763.3,156.1 1764.43,161.12C1766.88,171.947 1768.15,183.077 1768.22,194.51C1768.39,224.037 1768.4,254.467 1768.24,285.8C1768.23,286.747 1767.75,287.223 1766.8,287.23L1726.87,287.3C1726.34,287.3 1725.9,286.862 1725.9,286.33C1725.88,256.05 1725.87,226.577 1725.87,197.91C1725.88,191.47 1725.15,184.913 1723.7,178.24C1722.95,174.753 1721.73,171.593 1720.06,168.76C1716.51,162.73 1707.47,160.46 1700.78,160.74C1691.52,161.127 1682.51,163.09 1673.76,166.63C1673.42,166.763 1673.25,167.013 1673.25,167.38Z" style="fill:#004a8f;fill-rule:nonzero;"></path>        <path d="M1942.12,179.32C1941.43,182.22 1941.89,184.89 1941.89,187.79C1941.88,220.557 1941.89,253.507 1941.9,286.64C1941.9,286.64 1941.9,286.64 1941.9,286.64C1941.9,287.068 1941.55,287.42 1941.12,287.42C1941.11,287.42 1941.11,287.42 1941.1,287.42C1927.46,287.173 1913.82,287.173 1900.17,287.42C1900.17,287.42 1900.16,287.42 1900.16,287.42C1899.54,287.426 1899.03,286.915 1899.02,286.29C1899.02,286.287 1899.02,286.283 1899.02,286.28L1899,126.99C1899,126.157 1899.42,125.74 1900.25,125.74L1940.73,125.74C1941.15,125.74 1941.5,126.078 1941.52,126.5C1941.73,131.153 1941.52,135.87 1940.89,140.65C1940.83,141.14 1940.97,141.55 1941.27,141.93C1941.59,142.321 1942.16,142.426 1942.6,142.18C1949.46,138.28 1956.7,134.09 1963.7,131.1C1972.04,127.54 1981.1,124.51 1990.87,122.01C1991.72,121.797 1992.15,122.127 1992.14,123C1992.01,135.867 1991.99,149.447 1992.1,163.74C1992.11,165.147 1991.4,165.947 1989.97,166.14C1984.29,166.88 1978.75,169.03 1973.24,170.21C1964.78,172.03 1955.2,174.603 1944.5,177.93C1943.86,178.13 1943.26,178.357 1942.71,178.61C1942.4,178.75 1942.2,178.987 1942.12,179.32Z" style="fill:#004a8f;fill-rule:nonzero;"></path>        <path d="M2145.15,225.72C2142.45,248.14 2134.08,269.55 2114.69,281.31C2098.37,291.21 2076.33,292.99 2057.43,290.18C2048.12,288.793 2039.65,285.883 2032.03,281.45C2000.68,263.24 1997.53,218.03 2001.28,186.45C2004.04,163.16 2014.28,138.33 2037.24,128.44C2045.85,124.727 2055.44,122.613 2066.02,122.1C2083.11,121.27 2101.03,123.08 2115.51,131.65C2131.03,140.85 2139.83,158.96 2143.39,176.79C2146.58,192.703 2147.16,209.013 2145.15,225.72ZM2051.76,245.5C2058.39,253.58 2069.48,255.55 2079.58,253.84C2087.41,252.52 2093.17,248.613 2096.87,242.12C2098.12,239.927 2099.27,236.83 2100.33,232.83C2101.22,229.483 2101.79,226.377 2102.05,223.51C2102.76,215.783 2102.9,206.147 2102.48,194.6C2102.25,188.51 2101.17,182.94 2099.54,177.09C2097.8,170.837 2094.58,166.207 2089.87,163.2C2078.73,156.09 2056.94,157.12 2049.93,169.98C2047.94,173.633 2046.6,176.997 2045.93,180.07C2042.47,195.883 2042.23,212.32 2045.21,229.38C2046.14,234.71 2048.36,241.36 2051.76,245.5Z" style="fill:#004a8f;fill-rule:nonzero;"></path>    </g>    <g id="Prime" transform="matrix(1,0,0,1,0,65.9688)">        <g transform="matrix(0.999998,0.00174533,-0.00174533,0.999998,857.4,83.23)">            <path d="M21.21,-21.25C21.21,-21.68 20.86,-22.03 20.43,-22.03L-20.43,-22.03C-20.86,-22.03 -21.21,-21.68 -21.21,-21.25L-21.21,21.25C-21.21,21.68 -20.86,22.03 -20.43,22.03L20.43,22.03C20.86,22.03 21.21,21.68 21.21,21.25L21.21,-21.25Z" style="fill:#042653;"></path>        </g>        <path d="M596.87,222.76C596.597,244.113 596.64,265.327 597,286.4C597,286.403 597,286.407 597,286.41C597,286.909 596.589,287.32 596.09,287.32C596.09,287.32 596.09,287.32 596.09,287.32L553.15,287.27C552.317,287.27 551.9,286.853 551.9,286.02C552.04,214.967 552.04,142.95 551.9,69.97C551.893,67.11 552.037,64.77 552.33,62.95C552.383,62.617 552.58,62.45 552.92,62.45C582.107,62.463 610.433,62.473 637.9,62.48C646.84,62.487 655.813,63.753 664.82,66.28C679.653,70.447 691.25,78.567 699.61,90.64C704.57,97.8 708.047,106.66 710.04,117.22C712.827,131.94 712.9,147.157 710.26,162.87C708.38,174.043 704.48,184.033 698.56,192.84C686.05,211.44 663.63,221.16 641.54,221.52C627.753,221.747 613.207,221.82 597.9,221.74C597.22,221.74 596.877,222.08 596.87,222.76ZM596.8,165.08L596.9,181.32C596.905,182.205 597.635,182.93 598.52,182.93C598.53,182.93 598.54,182.93 598.55,182.93C608.657,182.717 618.893,182.69 629.26,182.85C635.78,182.95 640.733,182.463 644.12,181.39C654.2,178.203 660.807,171.387 663.94,160.94C667.38,149.5 667.797,137.527 665.19,125.02C662.35,111.387 653.963,103.703 640.03,101.97C638.017,101.723 633.023,101.67 625.05,101.81C617.557,100.683 611.707,100.12 607.5,100.12L597.51,100.12C596.9,100.125 596.376,100.569 596.27,101.17C596.13,102.01 596.06,103.037 596.06,104.25C596.107,121.403 596.173,137.867 596.26,153.64C596.28,157.22 596.73,161.23 596.8,165.08Z" style="fill:#042653;fill-rule:nonzero;"></path>        <path d="M768.82,142.09C768.82,142.091 768.821,142.091 768.821,142.092C769.034,142.444 769.503,142.556 769.86,142.34C769.86,142.34 769.86,142.34 769.86,142.34C784.433,133.313 800.5,126.54 818.06,122.02C819.053,121.76 819.55,122.147 819.55,123.18L819.52,164.07C819.52,165.041 818.817,165.881 817.86,166.05C814.48,166.64 811.13,167.28 807.76,168.28C804.92,169.12 802.097,169.867 799.29,170.52C789.257,172.84 779.4,175.537 769.72,178.61C769.487,178.683 769.316,178.882 769.28,179.12C769.087,180.2 768.99,181.327 768.99,182.5C769.023,217.14 769.047,251.82 769.06,286.54C769.06,287.02 768.817,287.263 768.33,287.27L727.68,287.3C727.066,287.3 726.56,286.794 726.56,286.18L726.54,126.59C726.54,126.107 726.933,125.71 727.41,125.71L768.22,125.75C768.571,125.75 768.86,126.043 768.86,126.4C768.887,131.2 768.733,135.837 768.4,140.31C768.347,140.95 768.487,141.543 768.82,142.09Z" style="fill:#042653;fill-rule:nonzero;"></path>        <path d="M994.12,238.67C993.92,238.69 993.84,238.603 993.88,238.41C993.893,238.343 993.937,238.313 994.01,238.32C994.183,238.327 994.3,238.25 994.36,238.09C994.387,238.017 994.377,237.947 994.33,237.88C994.283,237.807 994.22,237.753 994.14,237.72C993.767,237.58 993.763,237.43 994.13,237.27C994.17,237.257 994.193,237.23 994.2,237.19C994.22,237.11 994.213,237.037 994.18,236.97C993.767,236.13 993.703,235.177 993.99,234.11C994.134,233.555 994.116,232.969 993.94,232.42C993.667,231.553 993.753,230.793 994.2,230.14C994.28,230.027 994.297,229.913 994.25,229.8C994.23,229.76 994.197,229.737 994.15,229.73C993.77,229.65 993.747,229.513 994.08,229.32C994.167,229.273 994.227,229.203 994.26,229.11C994.287,229.043 994.29,228.977 994.27,228.91C994.23,228.77 994.14,228.687 994,228.66C993.9,228.64 993.85,228.583 993.85,228.49C993.843,228.383 993.9,228.337 994.02,228.35C994.036,228.352 994.052,228.352 994.067,228.35C994.165,228.337 994.236,228.251 994.224,228.158C994.222,228.142 994.217,228.125 994.21,228.11C993.87,227.383 993.847,226.673 994.14,225.98C994.24,225.76 994.17,225.65 993.93,225.65C993.83,225.65 993.813,225.567 993.88,225.4C993.9,225.347 993.94,225.32 994,225.32C994.153,225.32 994.237,225.253 994.25,225.12C994.257,225.06 994.257,224.997 994.25,224.93C994.203,224.717 994.09,224.62 993.91,224.64C993.855,224.64 993.81,224.595 993.81,224.54C993.81,224.509 993.825,224.479 993.85,224.46L994.2,224.24C994.36,224.133 994.367,224.013 994.22,223.88C993.753,223.46 993.68,222.983 994,222.45C994.44,221.717 994.52,220.977 994.24,220.23C994.16,220.03 994.127,219.823 994.14,219.61L994.34,216.49C994.367,216.143 994.247,215.86 993.98,215.64C993.827,215.513 993.843,215.397 994.03,215.29C994.18,215.196 994.271,215.03 994.27,214.85C994.25,201.02 994.65,187.06 991.34,174C986.28,153.96 958.69,161.28 945.11,166.17C943.743,166.663 943.257,167.603 943.65,168.99C943.87,169.75 943.983,170.56 943.99,171.42C944.037,210.087 944.03,248.527 943.97,286.74C943.97,286.74 943.97,286.74 943.97,286.74C943.97,287.058 943.708,287.32 943.39,287.32C943.387,287.32 943.383,287.32 943.38,287.32C931.287,287.227 919.183,287.22 907.07,287.3C905.73,287.307 904.383,287.413 903.03,287.62C902.951,287.632 902.87,287.638 902.79,287.638C901.918,287.638 901.201,286.922 901.2,286.05L901.18,127.14C901.18,126.187 901.657,125.71 902.61,125.71L943.03,125.76C943.566,125.763 944.005,126.204 944.005,126.74C944.005,126.814 943.997,126.888 943.98,126.96C943.507,128.987 943.283,131.007 943.31,133.02C943.315,133.686 943.864,134.231 944.53,134.231C944.756,134.231 944.978,134.169 945.17,134.05C956,127.45 969.89,121.66 982.87,121.92C997.46,122.21 1010.56,126.49 1020.83,137.02C1021.14,137.333 1021.47,137.36 1021.82,137.1C1023.06,136.2 1024.07,135.1 1025.48,134.45C1034.39,130.35 1043.55,127.073 1052.94,124.62C1062.08,122.227 1071.66,121.423 1081.67,122.21C1090.32,122.883 1097.88,124.95 1104.34,128.41C1119.39,136.49 1124.96,153.32 1127.68,169.45C1129.12,177.983 1129.85,187.333 1129.87,197.5C1129.94,226.187 1129.98,255.87 1129.99,286.55C1129.99,286.945 1129.66,287.27 1129.27,287.27L1088.44,287.32C1087.86,287.32 1087.39,286.846 1087.39,286.27C1087.39,256.45 1087.39,227.013 1087.38,197.96C1087.38,188.647 1086.2,180.323 1083.83,172.99C1081.9,167.03 1077.84,163.243 1071.63,161.63C1068.28,160.757 1065.1,160.493 1062.07,160.84C1053.15,161.86 1044.51,163.807 1036.16,166.68C1035.66,166.85 1035.33,167.344 1035.36,167.88C1035.78,173.82 1036.12,180.107 1036.39,186.74C1036.62,192.427 1036.73,198.69 1036.74,205.53C1036.77,230.517 1036.77,257.52 1036.75,286.54C1036.75,287.007 1036.51,287.243 1036.04,287.25L995.71,287.33C995.709,287.33 995.708,287.33 995.708,287.33C994.934,287.33 994.298,286.694 994.298,285.92C994.298,285.893 994.298,285.867 994.3,285.84C994.467,282.933 994.423,280.153 994.17,277.5C993.977,275.547 993.94,273.6 994.06,271.66C994.18,269.707 994.213,267.763 994.16,265.83C994.06,262.283 994.087,258.803 994.24,255.39C994.293,254.263 994.25,253.143 994.11,252.03C993.97,250.87 993.947,249.7 994.04,248.52C994.047,248.407 994.093,248.313 994.18,248.24C994.207,248.213 994.23,248.187 994.25,248.16C994.323,248.06 994.327,247.957 994.26,247.85C994.22,247.797 994.17,247.753 994.11,247.72C993.757,247.553 993.767,247.41 994.14,247.29C994.227,247.257 994.297,247.197 994.35,247.11C994.403,247.03 994.4,246.953 994.34,246.88C994.273,246.807 994.2,246.747 994.12,246.7C993.707,246.5 993.727,246.357 994.18,246.27C994.267,246.25 994.327,246.183 994.36,246.07C994.38,246.003 994.37,245.937 994.33,245.87C994.283,245.797 994.22,245.743 994.14,245.71C993.773,245.59 993.763,245.443 994.11,245.27C994.157,245.25 994.187,245.213 994.2,245.16C994.213,245.067 994.2,244.977 994.16,244.89C993.833,244.19 993.737,243.437 993.87,242.63C994.037,241.663 994.037,240.697 993.87,239.73C993.837,239.537 993.89,239.373 994.03,239.24C994.17,239.113 994.243,238.967 994.25,238.8C994.25,238.795 994.251,238.79 994.25,238.785C994.248,238.719 994.197,238.666 994.137,238.668C994.131,238.668 994.126,238.669 994.12,238.67Z" style="fill:#042653;fill-rule:nonzero;"></path>        <path d="M1186.32,225C1186.08,225 1185.89,225.199 1185.89,225.44C1186.15,244.69 1197.21,253.12 1215.5,253.07C1235.27,253.03 1255.49,252.57 1275.56,250.16C1276.39,250.06 1276.8,250.43 1276.79,251.27C1276.67,260.597 1276.86,270.477 1277.37,280.91C1277.4,281.587 1276.95,282.2 1276.29,282.37C1259.12,286.803 1241.78,289.65 1224.29,290.91C1204.94,292.3 1185.89,291 1169.13,280.84C1166.88,279.473 1164.41,277.44 1161.73,274.74C1154.27,267.21 1149.47,256.52 1147.12,246.21C1141.62,222.13 1141.49,197.973 1146.72,173.74C1149.56,160.6 1156.02,147.3 1165.76,138.07C1175,129.31 1188.27,124.16 1200.78,122.65C1221.04,120.21 1247.25,123.04 1262.8,137.8C1267.37,142.133 1271.05,147.123 1273.84,152.77C1276,157.15 1277.98,161.85 1279.17,166.61C1281.98,177.95 1282.96,188.457 1282.1,198.13C1281.35,206.583 1280.46,215.17 1279.41,223.89C1279.33,224.571 1278.75,225.09 1278.06,225.09L1186.32,225ZM1186.17,192.05L1240.27,191.95C1240.4,191.95 1240.5,191.846 1240.5,191.72L1240.48,183.27C1240.45,169.14 1230.02,157.531 1217.37,157.55L1208.95,157.57C1208.95,157.57 1208.95,157.57 1208.94,157.57C1196.29,157.592 1185.89,169.239 1185.92,183.37L1185.94,191.82C1185.94,191.946 1186.04,192.05 1186.17,192.05Z" style="fill:#042653;fill-rule:nonzero;"></path>        <path d="M878.57,126.44C878.57,126.054 878.256,125.74 877.87,125.74L836.91,125.74C836.524,125.74 836.21,126.054 836.21,126.44L836.21,286.58C836.21,286.966 836.524,287.28 836.91,287.28L877.87,287.28C878.256,287.28 878.57,286.966 878.57,286.58L878.57,126.44Z" style="fill:#042653;"></path>    </g>    <g id="Logo" transform="matrix(0.990015,0,0,0.990015,2.46571,-0.0458692)">        <g transform="matrix(1.13065,0,0,1.0201,-34.7725,-5.75931)">            <path d="M432.589,207.572C432.589,127.265 373.765,62.066 301.311,62.066L154.874,62.066C101.678,62.066 58.491,109.935 58.491,168.895L58.491,296.963C58.491,373.791 114.766,436.165 184.082,436.165L338.803,436.165C390.565,436.165 432.589,389.587 432.589,332.215L432.589,207.572Z" style="fill:#f58220;"></path>        </g>        <g transform="matrix(1.0201,0,0,1.0201,-3.80754,-5.75931)">            <path d="M431.898,161.778C432.355,165.888 432.589,170.065 432.589,174.296L432.589,323.935C432.589,385.877 382.301,436.165 320.36,436.165L170.72,436.165C160.101,436.165 149.824,434.687 140.085,431.926L96.839,475.171C85.68,486.33 67.56,486.33 56.4,475.171L15.961,434.732C4.802,423.573 4.802,405.452 15.961,394.293L61.296,348.959C59.46,340.911 58.491,332.536 58.491,323.935L58.491,174.296C58.491,112.355 108.779,62.066 170.72,62.066L320.36,62.066C322.667,62.066 324.958,62.136 327.23,62.274L371.38,18.124C385.465,4.039 408.337,4.039 422.423,18.124L473.465,69.167C487.551,83.253 487.551,106.124 473.465,120.21L431.898,161.778Z" style="fill:url(#_Linear1);"></path>        </g>        <g transform="matrix(1.15925,-1.15925,0.903309,0.903309,-329.322,444.908)">            <path d="M312.146,178.848L478.57,178.848C484.957,178.848 490.143,185.502 490.143,193.699L490.143,223.401C490.143,231.598 484.957,238.252 478.57,238.252L273.872,238.252C267.485,238.252 262.3,231.598 262.3,223.401L262.3,193.699C262.3,192.864 262.353,192.046 262.457,191.249L262.457,147.345C262.457,138.546 268.023,131.403 274.879,131.403L299.724,131.403C306.58,131.403 312.146,138.546 312.146,147.345L312.146,178.848Z" style="fill:#fff;"></path>        </g>    </g>    <defs>        <linearGradient id="_Linear1" x1="0" y1="0" x2="1" y2="0" gradientUnits="userSpaceOnUse" gradientTransform="matrix(410.956,-412.798,412.798,410.956,40.5804,457.134)"><stop offset="0" style="stop-color:#042653;stop-opacity:1"></stop><stop offset="0.52" style="stop-color:#01407f;stop-opacity:1"></stop><stop offset="1" style="stop-color:#004a8f;stop-opacity:1"></stop></linearGradient>    </defs></svg>