<svg xmlns="http://www.w3.org/2000/svg" xmlns:xlink="http://www.w3.org/1999/xlink" xmlns:serif="http://www.serif.com/" width="100%" height="100%" viewBox="0 0 2203 484" xml:space="preserve" style="fill-rule:evenodd;clip-rule:evenodd;stroke-linejoin:round;stroke-miterlimit:2;">    <g id="Control">        <path d="M2161.25,61.23C2164.84,61.37 2168.47,62.01 2171.92,62C2182.03,61.987 2192.14,61.997 2202.25,62.03C2202.41,62.03 2202.57,61.95 2202.72,61.79C2202.75,61.937 2202.85,62.01 2203,62.01L2203,90.25L2202.81,286.22C2202.81,286.785 2202.35,287.25 2201.78,287.25L2160.76,287.3C2160.31,287.3 2159.94,286.934 2159.94,286.49C2159.96,211.67 2159.96,137.007 2159.95,62.5C2159.95,61.52 2160.38,61.097 2161.25,61.23Z" style="fill:#004a8f;fill-rule:nonzero;"></path>        <path d="M1316.62,205.26L1316.91,147.45C1316.73,132.22 1319.56,117.49 1324.77,102.51C1330.25,86.743 1340.66,75.487 1356,68.74C1375.46,60.18 1398.49,60.84 1419.8,62.62C1423.05,62.893 1426.22,63.31 1429.29,63.87C1436.04,65.11 1442.72,65.93 1449.52,67.44C1453.29,68.273 1457.03,68.977 1460.75,69.55C1461.47,69.656 1462,70.292 1461.98,71.02L1461.03,105.27C1461,106.357 1460.46,106.753 1459.41,106.46C1457.56,105.94 1455.58,105.523 1453.48,105.21C1441.29,103.403 1428.51,102.327 1415.12,101.98C1405.59,101.733 1397.43,102.027 1390.64,102.86C1372.08,105.15 1365.13,121.53 1363.12,138.3C1360.86,157.167 1360.11,176.067 1360.88,195C1361.21,203.353 1362.15,211.743 1363.7,220.17C1364.73,225.817 1366.26,230.67 1368.29,234.73C1369.6,237.357 1371.73,240 1374.66,242.66C1381.69,249.02 1392.99,251.13 1402.26,251.34C1409.68,251.5 1416.18,251.377 1421.77,250.97C1434.96,250.01 1447.68,248.637 1459.92,246.85C1459.97,246.843 1460.01,246.839 1460.06,246.839C1460.57,246.839 1460.99,247.252 1461,247.76L1461.71,282.56C1461.73,283.322 1461.19,283.991 1460.45,284.14C1452.3,285.773 1444.17,287.25 1436.06,288.57C1428.93,289.723 1420.01,290.573 1409.3,291.12C1396.27,291.78 1383.94,291.027 1372.33,288.86C1362.98,287.113 1354.99,284.113 1348.36,279.86C1343.26,276.6 1338.1,272.03 1334.49,267.01C1328.02,258.037 1323.42,248.217 1320.69,237.55C1318,227.03 1316.64,216.267 1316.62,205.26Z" style="fill:#004a8f;fill-rule:nonzero;"></path>        <path d="M1798.52,124.01C1798.87,118.13 1798.5,111.82 1798.53,105.68C1798.58,94.853 1798.61,83.753 1798.64,72.38C1798.65,69.83 1798.29,66.62 1798.44,63.84C1798.48,63.14 1798.85,62.79 1799.54,62.79L1840.12,62.78C1840.84,62.78 1841.2,63.143 1841.2,63.87L1841.14,124.59C1841.14,124.593 1841.14,124.597 1841.14,124.6C1841.14,125.247 1841.68,125.78 1842.33,125.78C1842.33,125.78 1842.34,125.78 1842.34,125.78L1879.45,125.72C1879.85,125.72 1880.17,126.05 1880.17,126.45L1880.06,161.58C1880.05,162.5 1879.59,162.96 1878.67,162.96L1842.19,162.97C1841.46,162.97 1841.09,163.337 1841.09,164.07C1841.21,182.35 1841.21,202.077 1841.1,223.25C1841.07,228.237 1841.14,233.553 1841.31,239.2C1841.41,242.46 1841.93,244.87 1842.87,246.43C1845.86,251.39 1850.09,252.62 1855.57,252.4C1863.88,252.067 1871.22,251.82 1877.61,251.66C1878.19,251.643 1878.68,252.101 1878.71,252.68L1880.33,285.56C1880.35,285.979 1880.07,286.357 1879.67,286.46C1861.29,291.25 1841,293.9 1823.51,287.76C1813.43,284.22 1806.78,277.62 1803.56,267.96C1799.8,256.69 1798.75,243.95 1798.65,232C1798.46,208.727 1798.51,186.05 1798.82,163.97C1798.82,163.967 1798.82,163.963 1798.82,163.96C1798.82,163.357 1798.32,162.86 1797.72,162.86C1797.72,162.86 1797.71,162.86 1797.71,162.86L1781,163.01C1781,163.01 1780.99,163.01 1780.99,163.01C1780.31,163.01 1779.75,162.45 1779.75,161.77C1779.75,161.763 1779.75,161.757 1779.75,161.75L1780.16,126.98C1780.17,126.187 1780.57,125.79 1781.36,125.79L1796.72,125.72C1797.85,125.713 1798.45,125.143 1798.52,124.01Z" style="fill:#004a8f;fill-rule:nonzero;"></path>        <path d="M1470.57,175.21C1473.03,162.89 1479.07,149.75 1487.33,140.38C1498.18,128.06 1517.29,122.82 1533.51,122.13C1551.68,121.36 1569.63,123.32 1584.69,132.93C1601.07,143.36 1609.27,164.8 1611.91,183.81C1613.72,196.817 1613.86,210.843 1612.34,225.89C1611.25,236.69 1608.39,246.99 1603.76,256.79C1598.63,267.683 1591.25,275.887 1581.62,281.4C1575.61,284.85 1568.66,287.72 1561.97,289.13C1541.3,293.5 1517.33,291.99 1498.8,281.21C1483.22,272.14 1474.02,254.54 1470.47,237.07C1466.36,216.777 1466.39,196.157 1470.57,175.21ZM1569.37,221.87C1570.53,209.343 1570.21,196.593 1568.42,183.62C1567.85,179.467 1566.39,175.117 1564.06,170.57C1558.66,160.04 1545.79,157.95 1535.23,159.19C1524.6,160.437 1517.7,166.157 1514.52,176.35C1512.97,181.33 1511.99,185.86 1511.58,189.94C1510.23,203.613 1510.43,215.983 1512.2,227.05C1513.14,232.923 1514.88,238.273 1517.43,243.1C1521.08,250.01 1529.79,253.84 1537.3,254.29C1544.59,254.73 1551.51,253.87 1557.68,249.61C1566.18,243.75 1568.5,231.3 1569.37,221.87Z" style="fill:#004a8f;fill-rule:nonzero;"></path>        <path d="M1673.25,167.38L1673.33,286.66C1673.33,286.984 1673.07,287.25 1672.75,287.25L1631.7,287.33C1631.08,287.33 1630.56,286.82 1630.56,286.2L1630.54,126.95C1630.54,126.264 1631.11,125.7 1631.8,125.7L1671.87,125.77C1671.9,125.77 1671.94,125.771 1671.97,125.774C1672.66,125.831 1673.18,126.449 1673.12,127.143C1673.12,127.176 1673.12,127.208 1673.11,127.24L1672.25,132.44C1672.24,132.525 1672.23,132.611 1672.23,132.698C1672.23,133.553 1672.93,134.258 1673.79,134.258C1674.08,134.258 1674.36,134.179 1674.6,134.03C1686.7,126.74 1700.17,121.65 1714.66,121.95C1724.61,122.15 1733.79,123.72 1742.48,128.35C1750.06,132.38 1755.02,137.84 1758.73,145.42C1761.4,150.867 1763.3,156.1 1764.43,161.12C1766.88,171.947 1768.15,183.077 1768.22,194.51C1768.39,224.037 1768.4,254.467 1768.24,285.8C1768.23,286.747 1767.75,287.223 1766.8,287.23L1726.87,287.3C1726.34,287.3 1725.9,286.862 1725.9,286.33C1725.88,256.05 1725.87,226.577 1725.87,197.91C1725.88,191.47 1725.15,184.913 1723.7,178.24C1722.95,174.753 1721.73,171.593 1720.06,168.76C1716.51,162.73 1707.47,160.46 1700.78,160.74C1691.52,161.127 1682.51,163.09 1673.76,166.63C1673.42,166.763 1673.25,167.013 1673.25,167.38Z" style="fill:#004a8f;fill-rule:nonzero;"></path>        <path d="M1942.12,179.32C1941.43,182.22 1941.89,184.89 1941.89,187.79C1941.88,220.557 1941.89,253.507 1941.9,286.64C1941.9,286.64 1941.9,286.64 1941.9,286.64C1941.9,287.068 1941.55,287.42 1941.12,287.42C1941.11,287.42 1941.11,287.42 1941.1,287.42C1927.46,287.173 1913.82,287.173 1900.17,287.42C1900.17,287.42 1900.16,287.42 1900.16,287.42C1899.54,287.426 1899.03,286.915 1899.02,286.29C1899.02,286.287 1899.02,286.283 1899.02,286.28L1899,126.99C1899,126.157 1899.42,125.74 1900.25,125.74L1940.73,125.74C1941.15,125.74 1941.5,126.078 1941.52,126.5C1941.73,131.153 1941.52,135.87 1940.89,140.65C1940.83,141.14 1940.97,141.55 1941.27,141.93C1941.59,142.321 1942.16,142.426 1942.6,142.18C1949.46,138.28 1956.7,134.09 1963.7,131.1C1972.04,127.54 1981.1,124.51 1990.87,122.01C1991.72,121.797 1992.15,122.127 1992.14,123C1992.01,135.867 1991.99,149.447 1992.1,163.74C1992.11,165.147 1991.4,165.947 1989.97,166.14C1984.29,166.88 1978.75,169.03 1973.24,170.21C1964.78,172.03 1955.2,174.603 1944.5,177.93C1943.86,178.13 1943.26,178.357 1942.71,178.61C1942.4,178.75 1942.2,178.987 1942.12,179.32Z" style="fill:#004a8f;fill-rule:nonzero;"></path>        <path d="M2145.15,225.72C2142.45,248.14 2134.08,269.55 2114.69,281.31C2098.37,291.21 2076.33,292.99 2057.43,290.18C2048.12,288.793 2039.65,285.883 2032.03,281.45C2000.68,263.24 1997.53,218.03 2001.28,186.45C2004.04,163.16 2014.28,138.33 2037.24,128.44C2045.85,124.727 2055.44,122.613 2066.02,122.1C2083.11,121.27 2101.03,123.08 2115.51,131.65C2131.03,140.85 2139.83,158.96 2143.39,176.79C2146.58,192.703 2147.16,209.013 2145.15,225.72ZM2051.76,245.5C2058.39,253.58 2069.48,255.55 2079.58,253.84C2087.41,252.52 2093.17,248.613 2096.87,242.12C2098.12,239.927 2099.27,236.83 2100.33,232.83C2101.22,229.483 2101.79,226.377 2102.05,223.51C2102.76,215.783 2102.9,206.147 2102.48,194.6C2102.25,188.51 2101.17,182.94 2099.54,177.09C2097.8,170.837 2094.58,166.207 2089.87,163.2C2078.73,156.09 2056.94,157.12 2049.93,169.98C2047.94,173.633 2046.6,176.997 2045.93,180.07C2042.47,195.883 2042.23,212.32 2045.21,229.38C2046.14,234.71 2048.36,241.36 2051.76,245.5Z" style="fill:#004a8f;fill-rule:nonzero;"></path>    </g>    <g id="Prime">        <g transform="matrix(0.999998,0.00174533,-0.00174533,0.999998,857.4,83.23)">            <path d="M21.21,-21.25C21.21,-21.68 20.86,-22.03 20.43,-22.03L-20.43,-22.03C-20.86,-22.03 -21.21,-21.68 -21.21,-21.25L-21.21,21.25C-21.21,21.68 -20.86,22.03 -20.43,22.03L20.43,22.03C20.86,22.03 21.21,21.68 21.21,21.25L21.21,-21.25Z" style="fill:#042653;"></path>        </g>        <path d="M596.87,222.76C596.597,244.113 596.64,265.327 597,286.4C597,286.403 597,286.407 597,286.41C597,286.909 596.589,287.32 596.09,287.32C596.09,287.32 596.09,287.32 596.09,287.32L553.15,287.27C552.317,287.27 551.9,286.853 551.9,286.02C552.04,214.967 552.04,142.95 551.9,69.97C551.893,67.11 552.037,64.77 552.33,62.95C552.383,62.617 552.58,62.45 552.92,62.45C582.107,62.463 610.433,62.473 637.9,62.48C646.84,62.487 655.813,63.753 664.82,66.28C679.653,70.447 691.25,78.567 699.61,90.64C704.57,97.8 708.047,106.66 710.04,117.22C712.827,131.94 712.9,147.157 710.26,162.87C708.38,174.043 704.48,184.033 698.56,192.84C686.05,211.44 663.63,221.16 641.54,221.52C627.753,221.747 613.207,221.82 597.9,221.74C597.22,221.74 596.877,222.08 596.87,222.76ZM596.8,165.08L596.9,181.32C596.905,182.205 597.635,182.93 598.52,182.93C598.53,182.93 598.54,182.93 598.55,182.93C608.657,182.717 618.893,182.69 629.26,182.85C635.78,182.95 640.733,182.463 644.12,181.39C654.2,178.203 660.807,171.387 663.94,160.94C667.38,149.5 667.797,137.527 665.19,125.02C662.35,111.387 653.963,103.703 640.03,101.97C638.017,101.723 633.023,101.67 625.05,101.81C617.557,100.683 611.707,100.12 607.5,100.12L597.51,100.12C596.9,100.125 596.376,100.569 596.27,101.17C596.13,102.01 596.06,103.037 596.06,104.25C596.107,121.403 596.173,137.867 596.26,153.64C596.28,157.22 596.73,161.23 596.8,165.08Z" style="fill:#042653;fill-rule:nonzero;"></path>        <path d="M768.82,142.09C768.82,142.091 768.821,142.091 768.821,142.092C769.034,142.444 769.503,142.556 769.86,142.34C769.86,142.34 769.86,142.34 769.86,142.34C784.433,133.313 800.5,126.54 818.06,122.02C819.053,121.76 819.55,122.147 819.55,123.18L819.52,164.07C819.52,165.041 818.817,165.881 817.86,166.05C814.48,166.64 811.13,167.28 807.76,168.28C804.92,169.12 802.097,169.867 799.29,170.52C789.257,172.84 779.4,175.537 769.72,178.61C769.487,178.683 769.316,178.882 769.28,179.12C769.087,180.2 768.99,181.327 768.99,182.5C769.023,217.14 769.047,251.82 769.06,286.54C769.06,287.02 768.817,287.263 768.33,287.27L727.68,287.3C727.066,287.3 726.56,286.794 726.56,286.18L726.54,126.59C726.54,126.107 726.933,125.71 727.41,125.71L768.22,125.75C768.571,125.75 768.86,126.043 768.86,126.4C768.887,131.2 768.733,135.837 768.4,140.31C768.347,140.95 768.487,141.543 768.82,142.09Z" style="fill:#042653;fill-rule:nonzero;"></path>        <path d="M994.12,238.67C993.92,238.69 993.84,238.603 993.88,238.41C993.893,238.343 993.937,238.313 994.01,238.32C994.183,238.327 994.3,238.25 994.36,238.09C994.387,238.017 994.377,237.947 994.33,237.88C994.283,237.807 994.22,237.753 994.14,237.72C993.767,237.58 993.763,237.43 994.13,237.27C994.17,237.257 994.193,237.23 994.2,237.19C994.22,237.11 994.213,237.037 994.18,236.97C993.767,236.13 993.703,235.177 993.99,234.11C994.134,233.555 994.116,232.969 993.94,232.42C993.667,231.553 993.753,230.793 994.2,230.14C994.28,230.027 994.297,229.913 994.25,229.8C994.23,229.76 994.197,229.737 994.15,229.73C993.77,229.65 993.747,229.513 994.08,229.32C994.167,229.273 994.227,229.203 994.26,229.11C994.287,229.043 994.29,228.977 994.27,228.91C994.23,228.77 994.14,228.687 994,228.66C993.9,228.64 993.85,228.583 993.85,228.49C993.843,228.383 993.9,228.337 994.02,228.35C994.036,228.352 994.052,228.352 994.067,228.35C994.165,228.337 994.236,228.251 994.224,228.158C994.222,228.142 994.217,228.125 994.21,228.11C993.87,227.383 993.847,226.673 994.14,225.98C994.24,225.76 994.17,225.65 993.93,225.65C993.83,225.65 993.813,225.567 993.88,225.4C993.9,225.347 993.94,225.32 994,225.32C994.153,225.32 994.237,225.253 994.25,225.12C994.257,225.06 994.257,224.997 994.25,224.93C994.203,224.717 994.09,224.62 993.91,224.64C993.855,224.64 993.81,224.595 993.81,224.54C993.81,224.509 993.825,224.479 993.85,224.46L994.2,224.24C994.36,224.133 994.367,224.013 994.22,223.88C993.753,223.46 993.68,222.983 994,222.45C994.44,221.717 994.52,220.977 994.24,220.23C994.16,220.03 994.127,219.823 994.14,219.61L994.34,216.49C994.367,216.143 994.247,215.86 993.98,215.64C993.827,215.513 993.843,215.397 994.03,215.29C994.18,215.196 994.271,215.03 994.27,214.85C994.25,201.02 994.65,187.06 991.34,174C986.28,153.96 958.69,161.28 945.11,166.17C943.743,166.663 943.257,167.603 943.65,168.99C943.87,169.75 943.983,170.56 943.99,171.42C944.037,210.087 944.03,248.527 943.97,286.74C943.97,286.74 943.97,286.74 943.97,286.74C943.97,287.058 943.708,287.32 943.39,287.32C943.387,287.32 943.383,287.32 943.38,287.32C931.287,287.227 919.183,287.22 907.07,287.3C905.73,287.307 904.383,287.413 903.03,287.62C902.951,287.632 902.87,287.638 902.79,287.638C901.918,287.638 901.201,286.922 901.2,286.05L901.18,127.14C901.18,126.187 901.657,125.71 902.61,125.71L943.03,125.76C943.566,125.763 944.005,126.204 944.005,126.74C944.005,126.814 943.997,126.888 943.98,126.96C943.507,128.987 943.283,131.007 943.31,133.02C943.315,133.686 943.864,134.231 944.53,134.231C944.756,134.231 944.978,134.169 945.17,134.05C956,127.45 969.89,121.66 982.87,121.92C997.46,122.21 1010.56,126.49 1020.83,137.02C1021.14,137.333 1021.47,137.36 1021.82,137.1C1023.06,136.2 1024.07,135.1 1025.48,134.45C1034.39,130.35 1043.55,127.073 1052.94,124.62C1062.08,122.227 1071.66,121.423 1081.67,122.21C1090.32,122.883 1097.88,124.95 1104.34,128.41C1119.39,136.49 1124.96,153.32 1127.68,169.45C1129.12,177.983 1129.85,187.333 1129.87,197.5C1129.94,226.187 1129.98,255.87 1129.99,286.55C1129.99,286.945 1129.66,287.27 1129.27,287.27L1088.44,287.32C1087.86,287.32 1087.39,286.846 1087.39,286.27C1087.39,256.45 1087.39,227.013 1087.38,197.96C1087.38,188.647 1086.2,180.323 1083.83,172.99C1081.9,167.03 1077.84,163.243 1071.63,161.63C1068.28,160.757 1065.1,160.493 1062.07,160.84C1053.15,161.86 1044.51,163.807 1036.16,166.68C1035.66,166.85 1035.33,167.344 1035.36,167.88C1035.78,173.82 1036.12,180.107 1036.39,186.74C1036.62,192.427 1036.73,198.69 1036.74,205.53C1036.77,230.517 1036.77,257.52 1036.75,286.54C1036.75,287.007 1036.51,287.243 1036.04,287.25L995.71,287.33C995.709,287.33 995.708,287.33 995.708,287.33C994.934,287.33 994.298,286.694 994.298,285.92C994.298,285.893 994.298,285.867 994.3,285.84C994.467,282.933 994.423,280.153 994.17,277.5C993.977,275.547 993.94,273.6 994.06,271.66C994.18,269.707 994.213,267.763 994.16,265.83C994.06,262.283 994.087,258.803 994.24,255.39C994.293,254.263 994.25,253.143 994.11,252.03C993.97,250.87 993.947,249.7 994.04,248.52C994.047,248.407 994.093,248.313 994.18,248.24C994.207,248.213 994.23,248.187 994.25,248.16C994.323,248.06 994.327,247.957 994.26,247.85C994.22,247.797 994.17,247.753 994.11,247.72C993.757,247.553 993.767,247.41 994.14,247.29C994.227,247.257 994.297,247.197 994.35,247.11C994.403,247.03 994.4,246.953 994.34,246.88C994.273,246.807 994.2,246.747 994.12,246.7C993.707,246.5 993.727,246.357 994.18,246.27C994.267,246.25 994.327,246.183 994.36,246.07C994.38,246.003 994.37,245.937 994.33,245.87C994.283,245.797 994.22,245.743 994.14,245.71C993.773,245.59 993.763,245.443 994.11,245.27C994.157,245.25 994.187,245.213 994.2,245.16C994.213,245.067 994.2,244.977 994.16,244.89C993.833,244.19 993.737,243.437 993.87,242.63C994.037,241.663 994.037,240.697 993.87,239.73C993.837,239.537 993.89,239.373 994.03,239.24C994.17,239.113 994.243,238.967 994.25,238.8C994.25,238.795 994.251,238.79 994.25,238.785C994.248,238.719 994.197,238.666 994.137,238.668C994.131,238.668 994.126,238.669 994.12,238.67Z" style="fill:#042653;fill-rule:nonzero;"></path>        <path d="M1186.32,225C1186.08,225 1185.89,225.199 1185.89,225.44C1186.15,244.69 1197.21,253.12 1215.5,253.07C1235.27,253.03 1255.49,252.57 1275.56,250.16C1276.39,250.06 1276.8,250.43 1276.79,251.27C1276.67,260.597 1276.86,270.477 1277.37,280.91C1277.4,281.587 1276.95,282.2 1276.29,282.37C1259.12,286.803 1241.78,289.65 1224.29,290.91C1204.94,292.3 1185.89,291 1169.13,280.84C1166.88,279.473 1164.41,277.44 1161.73,274.74C1154.27,267.21 1149.47,256.52 1147.12,246.21C1141.62,222.13 1141.49,197.973 1146.72,173.74C1149.56,160.6 1156.02,147.3 1165.76,138.07C1175,129.31 1188.27,124.16 1200.78,122.65C1221.04,120.21 1247.25,123.04 1262.8,137.8C1267.37,142.133 1271.05,147.123 1273.84,152.77C1276,157.15 1277.98,161.85 1279.17,166.61C1281.98,177.95 1282.96,188.457 1282.1,198.13C1281.35,206.583 1280.46,215.17 1279.41,223.89C1279.33,224.571 1278.75,225.09 1278.06,225.09L1186.32,225ZM1186.17,192.05L1240.27,191.95C1240.4,191.95 1240.5,191.846 1240.5,191.72L1240.48,183.27C1240.45,169.14 1230.02,157.531 1217.37,157.55L1208.95,157.57C1208.95,157.57 1208.95,157.57 1208.94,157.57C1196.29,157.592 1185.89,169.239 1185.92,183.37L1185.94,191.82C1185.94,191.946 1186.04,192.05 1186.17,192.05Z" style="fill:#042653;fill-rule:nonzero;"></path>        <path d="M878.57,126.44C878.57,126.054 878.256,125.74 877.87,125.74L836.91,125.74C836.524,125.74 836.21,126.054 836.21,126.44L836.21,286.58C836.21,286.966 836.524,287.28 836.91,287.28L877.87,287.28C878.256,287.28 878.57,286.966 878.57,286.58L878.57,126.44Z" style="fill:#042653;"></path>    </g>    <g id="Quality-Drives-Results" serif:id="Quality Drives Results">        <path d="M1262.5,331.67L1242.63,435.82C1242.54,436.308 1242.11,436.664 1241.61,436.66L1231.24,436.61C1230.68,436.609 1230.21,436.144 1230.21,435.58C1230.21,435.516 1230.22,435.453 1230.23,435.39L1249.97,331.9C1250.06,331.437 1250.45,331.089 1250.92,331.06L1261.43,330.45C1261.45,330.449 1261.47,330.448 1261.49,330.448C1262.05,330.448 1262.52,330.913 1262.52,331.478C1262.52,331.543 1262.51,331.607 1262.5,331.67Z" style="fill:#042653;fill-rule:nonzero;"></path>        <path d="M2110.23,331.55L2090.22,436.11C2090.18,436.359 2089.96,436.544 2089.71,436.55L2078.23,436.68C2078.23,436.68 2078.22,436.68 2078.22,436.68C2077.93,436.68 2077.69,436.441 2077.69,436.15C2077.69,436.116 2077.69,436.083 2077.7,436.05L2097.83,331.02C2097.88,330.768 2098.1,330.585 2098.36,330.59L2109.73,330.92C2110.01,330.931 2110.24,331.167 2110.24,331.45C2110.24,331.483 2110.24,331.517 2110.23,331.55Z" style="fill:#042653;fill-rule:nonzero;"></path>        <g transform="matrix(-0.48786,0.872922,-0.872922,-0.48786,1285.79,342.98)">            <ellipse cx="0" cy="0" rx="8.75" ry="8.11" style="fill:#042653;"></ellipse>        </g>        <g transform="matrix(-0.474088,0.880477,-0.880477,-0.474088,1592.08,343.01)">            <ellipse cx="0" cy="0" rx="8.76" ry="8.11" style="fill:#042653;"></ellipse>        </g>        <path d="M1039.16,434.33C1037.55,434.983 1037.61,435.43 1039.32,435.67C1043.29,436.223 1047.08,436.92 1050.7,437.76C1055.01,438.76 1059.06,439.457 1062.85,439.85C1063.43,439.909 1063.87,440.402 1063.87,440.984C1063.87,441.156 1063.84,441.325 1063.76,441.48L1059.63,449.95C1059.5,450.206 1059.21,450.343 1058.93,450.28C1046.61,447.26 1034.84,443.763 1023.62,439.79C1021.19,438.93 1019.06,438.353 1017.22,438.06C1014.22,437.57 1011.44,437.29 1008.54,436.3C1000.95,433.713 995.123,429.35 991.05,423.21C985.417,414.71 983.01,404.65 983.83,393.03C985.88,363.77 1004.68,334.45 1037.05,334.57C1043.49,334.597 1049.04,335.7 1053.7,337.88C1068.18,344.64 1074.32,360.19 1074.34,375.47C1074.35,389.323 1070.75,402.303 1063.53,414.41C1062.7,415.81 1061.7,417.193 1060.54,418.56C1059,420.37 1057.93,422.37 1056.06,424.01C1052.76,426.917 1049.78,429.107 1047.11,430.58C1044.77,431.873 1042.12,433.123 1039.16,434.33ZM997.12,392.07C996.39,401.14 997.49,411.43 1003.07,418.51C1005.19,421.197 1007.32,423.13 1009.45,424.31C1019.48,429.89 1031.93,428.55 1040.9,421.61C1050.46,414.23 1057.13,402.13 1059.54,390.76C1061.69,380.59 1062.34,369.72 1058.67,360.2C1055.95,353.133 1050.88,348.457 1043.45,346.17C1030.3,342.13 1017.45,348.78 1009.63,359.42C1002.23,369.5 998.06,380.383 997.12,392.07Z" style="fill:#042653;fill-rule:nonzero;"></path>        <path d="M1513.23,404.15C1506.44,418.65 1495.64,428.4 1480.81,433.4C1473.76,435.78 1465.7,437.053 1456.61,437.22C1448,437.373 1439.21,437.007 1430.22,436.12C1430.19,436.118 1430.17,436.115 1430.15,436.111C1429.54,436.014 1429.13,435.436 1429.23,434.829C1429.23,434.806 1429.24,434.783 1429.24,434.76C1429.79,432.29 1430.59,429.89 1431.06,427.4C1436.59,398 1442.1,368.603 1447.59,339.21C1447.98,337.16 1449.86,337.39 1451.34,337.14C1462.22,335.3 1475.35,334.66 1486.51,336.69C1491.27,337.557 1495.99,339.213 1500.68,341.66C1504.91,343.867 1508.62,346.993 1511.81,351.04C1523.01,365.22 1520.49,388.63 1513.23,404.15ZM1505.97,374.24C1505.45,353.35 1489.56,345.16 1470.69,345.81C1467.24,345.923 1463.86,346.08 1460.55,346.28C1459.57,346.339 1458.74,347.055 1458.53,348.02C1457.84,351.32 1457.18,354.653 1456.55,358.02C1452.22,381.433 1447.89,403.797 1443.57,425.11C1443.4,425.97 1443.75,426.417 1444.63,426.45C1448.21,426.577 1451.75,426.75 1455.24,426.97C1457.71,427.123 1461.83,426.783 1467.6,425.95C1478.35,424.39 1487.83,419.2 1494.36,411.11C1503.01,400.4 1506.31,387.99 1505.97,374.24Z" style="fill:#042653;fill-rule:nonzero;"></path>        <path d="M1857.7,389.47C1859.63,391.28 1861.65,391.84 1863.24,394.46C1865.59,398.327 1866.9,402.733 1867.17,407.68C1867.65,416.433 1868.38,424.107 1869.37,430.7C1869.58,432.133 1869.89,433.58 1870.28,435.04C1870.31,435.148 1870.32,435.259 1870.32,435.37C1870.32,436.061 1869.76,436.63 1869.06,436.63C1869.06,436.63 1869.06,436.63 1869.06,436.63L1858.64,436.56C1857.84,436.552 1857.16,435.927 1857.1,435.13C1856.34,426.03 1855.58,416.89 1854.82,407.71C1854.14,399.46 1848.97,392.91 1840.48,392.85C1837.13,392.83 1833.76,392.833 1830.37,392.86C1829.08,392.873 1828.31,393.513 1828.07,394.78L1820.44,435.57C1820.32,436.2 1819.77,436.661 1819.13,436.66L1809.19,436.62C1809.19,436.62 1809.19,436.62 1809.19,436.62C1808.6,436.62 1808.12,436.137 1808.12,435.55C1808.12,435.479 1808.13,435.409 1808.14,435.34C1810.31,424.433 1812.4,413.577 1814.39,402.77C1814.73,400.93 1815.04,399.167 1815.33,397.48C1815.86,394.327 1816.43,391.437 1817.04,388.81C1817.71,385.883 1818.3,382.997 1818.8,380.15C1821.13,366.983 1823.64,353.603 1826.34,340.01C1826.61,338.68 1827.51,337.4 1828.97,337.16C1842.46,334.98 1859.35,333.35 1870.47,341.33C1877.28,346.217 1880.5,352.743 1880.12,360.91C1879.59,372.32 1871.51,382.01 1861.22,386.74C1860.31,387.16 1859.33,387.457 1858.27,387.63C1858.15,387.649 1858.05,387.687 1857.94,387.741C1857.42,388.019 1857.21,388.674 1857.49,389.192C1857.54,389.296 1857.61,389.39 1857.7,389.47ZM1839.43,346.12C1838.18,346.33 1837.23,347.34 1837.01,348.57C1835.54,356.823 1833.95,365.117 1832.24,373.45C1831.61,376.56 1830.63,379.53 1830.27,382.67C1830.27,382.695 1830.27,382.721 1830.26,382.746C1830.25,383.201 1830.62,383.587 1831.08,383.601C1831.1,383.602 1831.13,383.601 1831.15,383.6C1834.9,383.34 1838.62,383.23 1842.31,383.27C1844.6,383.29 1846.74,382.65 1849,382.26C1854.39,381.34 1859.38,378.05 1862.63,373.81C1870.81,363.14 1867.87,347.79 1852.75,345.89C1848.22,345.323 1843.78,345.4 1839.43,346.12Z" style="fill:#042653;fill-rule:nonzero;"></path>        <path d="M1310.67,363.08L1312.23,352.93C1312.28,352.617 1312.43,352.37 1312.68,352.19C1313.98,351.22 1315.17,350.34 1316.78,349.96C1319.87,349.227 1322.75,348.247 1325.4,347.02C1325.78,346.84 1325.94,346.957 1325.87,347.37C1325.04,352.063 1323.95,356.953 1322.6,362.04C1322.46,362.56 1322.43,363.073 1322.52,363.58C1322.62,364.191 1323.17,364.639 1323.79,364.63L1337.7,364.36C1338.83,364.34 1339.32,364.887 1339.18,366L1338.41,372.22C1338.24,373.607 1337.45,374.287 1336.05,374.26L1322.01,373.97C1320.91,373.945 1319.95,374.763 1319.8,375.86C1318.27,387.133 1316.28,398.467 1313.83,409.86C1313.46,411.613 1313.17,413.387 1312.96,415.18C1312.69,417.45 1312.01,419.9 1312.5,422.09C1313.55,426.877 1317.13,428.617 1323.24,427.31C1324.55,427.03 1325.17,427.557 1325.12,428.89L1324.88,434.86C1324.83,436.106 1323.92,437.164 1322.69,437.41C1313.32,439.27 1300.85,438.06 1300.08,426.27C1299.76,421.31 1300.33,416.08 1301.28,411.25C1303.05,402.143 1304.96,392.613 1307,382.66C1307.42,380.6 1307.91,378.46 1308.47,376.24C1308.58,375.78 1308.6,375.377 1308.52,375.03C1308.36,374.337 1307.72,373.858 1307.01,373.91L1299.46,374.49C1299.43,374.492 1299.4,374.493 1299.37,374.493C1298.76,374.489 1298.27,373.994 1298.28,373.396C1298.28,373.364 1298.28,373.332 1298.28,373.3C1298.51,370.74 1299.07,368.283 1299.96,365.93C1300.34,364.912 1301.35,364.248 1302.44,364.29L1308.91,364.53C1309.78,364.565 1310.54,363.937 1310.67,363.08Z" style="fill:#042653;fill-rule:nonzero;"></path>        <path d="M2135.77,375.3C2133.62,388.507 2131.28,401.473 2128.77,414.2C2128.4,416.067 2128.1,418.083 2127.85,420.25C2127.44,423.77 2129.3,424.62 2131.26,426.89C2131.53,427.207 2131.9,427.422 2132.31,427.5C2134.34,427.893 2136.56,427.78 2138.99,427.16C2140.35,426.807 2141.01,427.333 2140.97,428.74L2140.79,434.78C2140.74,436.167 2140.04,437.007 2138.69,437.3C2134.02,438.32 2130.1,438.497 2126.94,437.83C2111.23,434.52 2115.38,419.83 2117.52,408.4C2119.61,397.24 2121.81,386.26 2124.14,375.46C2124.16,375.377 2124.17,375.293 2124.17,375.209C2124.17,374.556 2123.63,374.019 2122.98,374.019C2122.96,374.019 2122.94,374.019 2122.92,374.02L2115.17,374.43C2114.44,374.463 2114.12,374.12 2114.21,373.4L2115.12,366.11C2115.26,364.992 2116.27,364.175 2117.39,364.28C2119.93,364.527 2122.49,364.527 2125.07,364.28C2125.92,364.201 2126.58,363.501 2126.62,362.65C2126.75,359.737 2127.13,356.763 2127.78,353.73C2128.1,352.23 2129.01,351.233 2130.5,350.74C2133.71,349.68 2136.8,348.57 2139.77,347.41C2140.22,347.23 2140.66,347.197 2141.07,347.31C2141.41,347.403 2141.62,347.749 2141.55,348.09L2138.44,362.63C2138.43,362.695 2138.42,362.761 2138.41,362.828C2138.33,363.756 2139.02,364.59 2139.94,364.674C2140.01,364.68 2140.07,364.682 2140.14,364.68L2154.04,364.32C2155.25,364.287 2155.73,364.86 2155.46,366.04L2154.05,372.21C2153.72,373.663 2152.81,374.363 2151.32,374.31L2137.55,373.84C2136.67,373.813 2135.91,374.443 2135.77,375.3Z" style="fill:#042653;fill-rule:nonzero;"></path>        <path d="M1203.35,419.48C1203.12,419.567 1202.92,419.72 1202.75,419.94C1200.62,422.74 1198.67,425.29 1196.9,427.59C1191.48,434.64 1183.27,438.47 1174.46,438.11C1163.14,437.64 1155.66,428.17 1155.05,417.35C1154.04,399.55 1161.99,381.75 1176.66,371.48C1185.65,365.18 1196.01,362.377 1207.73,363.07C1213.1,363.383 1218.28,364.027 1223.28,365C1223.76,365.095 1224.11,365.52 1224.11,366.011C1224.11,366.081 1224.1,366.151 1224.09,366.22C1221.32,379.853 1218.62,393.907 1215.99,408.38C1214.26,417.907 1213.49,426.97 1213.68,435.57C1213.68,435.577 1213.68,435.583 1213.68,435.59C1213.68,436.171 1213.2,436.65 1212.62,436.65C1212.62,436.65 1212.62,436.65 1212.62,436.65L1203.27,436.63C1203.27,436.63 1203.27,436.63 1203.27,436.63C1202.49,436.63 1201.85,435.989 1201.85,435.21C1201.85,435.183 1201.85,435.157 1201.85,435.13C1202.08,430.497 1202.96,425.647 1204.51,420.58C1204.54,420.494 1204.55,420.404 1204.55,420.314C1204.55,419.826 1204.15,419.424 1203.66,419.424C1203.56,419.424 1203.45,419.443 1203.35,419.48ZM1175.46,388.04C1169.31,397.29 1166.01,408.82 1168.7,419.36C1170.46,426.24 1178.06,429.73 1184.45,427.08C1196.23,422.18 1203.13,409.23 1205.58,396.83C1207.03,389.53 1208.54,382.443 1210.13,375.57C1210.16,375.422 1210.18,375.272 1210.18,375.12C1210.18,374.082 1209.38,373.202 1208.35,373.1C1204.24,372.7 1200.49,372.713 1197.09,373.14C1188.53,374.22 1180.02,381.19 1175.46,388.04Z" style="fill:#042653;fill-rule:nonzero;"></path>        <path d="M1545.29,378.7C1545.39,378.58 1545.48,378.43 1545.57,378.25C1545.76,377.857 1545.95,377.557 1546.13,377.35C1547.38,375.89 1548.55,374.4 1549.62,372.88C1554.54,365.85 1560.52,362.32 1569.62,363.04C1570.13,363.08 1570.34,363.35 1570.25,363.85L1568.33,374.66C1568.24,375.174 1567.79,375.552 1567.27,375.552C1567.19,375.552 1567.12,375.545 1567.05,375.53C1555.21,373.09 1546.5,387.44 1543.45,396.74C1542.89,398.433 1541.67,403.977 1539.8,413.37C1538.4,420.39 1537.08,427.577 1535.83,434.93C1535.66,435.924 1534.79,436.66 1533.78,436.66L1523.89,436.64C1523.17,436.64 1522.89,436.287 1523.06,435.58C1525.02,427.56 1526.32,419.28 1527.84,411.21C1530.74,395.75 1533.93,381.2 1535.1,365.66C1535.17,364.8 1535.63,364.377 1536.49,364.39L1545.54,364.56C1546.19,364.573 1546.73,365.115 1546.73,365.77C1546.73,365.868 1546.71,365.965 1546.69,366.06L1543.81,377.96C1543.8,378.024 1543.79,378.09 1543.79,378.156C1543.79,378.622 1544.17,379.006 1544.64,379.006C1544.89,379.006 1545.13,378.894 1545.29,378.7Z" style="fill:#042653;fill-rule:nonzero;"></path>        <path d="M1676.87,406.14C1676.88,409.94 1676.91,414.55 1678.48,418.16C1681.17,424.313 1686.23,427.597 1693.66,428.01C1699.44,428.337 1705.95,426.847 1713.18,423.54C1713.22,423.524 1713.25,423.511 1713.29,423.5C1713.78,423.354 1714.3,423.632 1714.44,424.116C1714.45,424.153 1714.46,424.191 1714.47,424.23L1715.62,431.33C1715.73,432.037 1715.36,432.738 1714.71,433.04C1699.06,440.24 1673.76,442.39 1666.61,421.66C1661.19,405.93 1666.97,386.93 1677.89,374.99C1687.12,364.9 1699.65,360.58 1712.93,364.32C1719.2,366.09 1724.06,371.99 1724.8,378.58C1726.32,392.11 1717.67,399.12 1705.96,402.1C1696.91,404.4 1687.65,405.323 1678.19,404.87C1678.17,404.869 1678.15,404.869 1678.13,404.869C1677.44,404.869 1676.87,405.437 1676.87,406.129C1676.87,406.132 1676.87,406.136 1676.87,406.14ZM1706.68,373.32C1692.49,369.33 1682.93,382.83 1678.47,394.42C1678.45,394.459 1678.44,394.499 1678.43,394.54C1678.35,394.943 1678.62,395.343 1679.03,395.426C1679.07,395.433 1679.11,395.438 1679.15,395.44C1686.78,395.747 1694.02,395.05 1700.88,393.35C1704.12,392.55 1708.2,390.78 1710.41,388.48C1715.07,383.63 1713.35,375.2 1706.68,373.32Z" style="fill:#042653;fill-rule:nonzero;"></path>        <path d="M1738.73,427.69C1744,428.96 1749.78,428.98 1754.3,425.57C1762.53,419.36 1759.33,409.74 1751.52,405.23C1746.88,402.54 1740.91,399.03 1738.36,394.17C1734.32,386.457 1735.11,379.02 1740.72,371.86C1748.85,361.5 1764.93,361.33 1776.66,365.71C1776.92,365.802 1777.06,366.093 1776.97,366.36L1774.3,374.61C1774.12,375.167 1773.6,375.547 1773.02,375.547C1772.77,375.547 1772.54,375.482 1772.33,375.36C1768.98,373.373 1764.88,372.48 1760.04,372.68C1755.23,372.88 1751.54,375.23 1749.09,379.14C1745.23,385.3 1750.54,390.74 1755.46,393.72C1761.71,397.5 1767.48,400.92 1770.58,408.03C1773.79,415.39 1770.95,424.29 1765.65,430.21C1763.26,432.877 1759.87,434.92 1755.5,436.34C1748.41,438.633 1740.76,438.63 1732.55,436.33C1730.6,435.783 1728.87,434.96 1727.34,433.86C1726.37,433.163 1726.1,431.809 1726.74,430.79C1727.78,429.117 1728.62,427.3 1729.25,425.34C1729.38,424.96 1729.76,424.725 1730.16,424.79C1733.26,425.29 1736.09,427.05 1738.73,427.69Z" style="fill:#042653;fill-rule:nonzero;"></path>        <path d="M1896.35,405.17C1895.97,405.334 1895.72,405.708 1895.7,406.13C1895.39,414.06 1897.41,422.83 1905.24,426.33C1913.41,429.97 1924.51,427.44 1932.01,423.47C1932.15,423.393 1932.31,423.352 1932.47,423.352C1932.94,423.352 1933.35,423.695 1933.43,424.16L1934.71,431.72C1934.79,432.212 1934.53,432.703 1934.07,432.91C1925.41,436.783 1916.9,438.483 1908.54,438.01C1898.9,437.463 1891.9,433.457 1887.54,425.99C1879.88,412.9 1883.67,395.75 1890.68,383.36C1896.09,373.78 1905.84,365.11 1917.23,363.41C1923.87,362.42 1933.19,362.9 1938.22,367.87C1949.79,379.29 1943.69,395.97 1929.19,400.76C1919.49,403.96 1909.04,405.337 1897.84,404.89C1897.32,404.87 1896.82,404.963 1896.35,405.17ZM1898.66,391.25C1898.23,392.203 1897.94,393.133 1897.78,394.04C1897.77,394.113 1897.76,394.186 1897.76,394.26C1897.76,394.924 1898.3,395.474 1898.96,395.49C1906.52,395.683 1913.69,394.907 1920.46,393.16C1925.44,391.88 1930.95,389.08 1931.87,383.38C1932.77,377.86 1929.03,373.57 1923.63,372.81C1911.45,371.08 1903.33,380.79 1898.66,391.25Z" style="fill:#042653;fill-rule:nonzero;"></path>        <path d="M1992.86,374.9C1992.58,375.567 1992.13,375.72 1991.5,375.36C1987.89,373.267 1983.39,372.407 1978.01,372.78C1972.79,373.14 1968.62,377.17 1966.97,381.68C1965.29,386.29 1970.95,391.64 1974.47,393.69C1982.45,398.35 1990.35,403.51 1990.59,413.92C1990.76,420.873 1988.61,426.467 1984.15,430.7C1976.05,438.41 1963.73,439.41 1952.82,436.66C1950.56,436.087 1948.54,435.317 1946.77,434.35C1945.7,433.768 1945.23,432.458 1945.68,431.32L1948.04,425.41C1948.18,425.057 1948.44,424.89 1948.82,424.91C1952.21,425.06 1955.02,427.2 1957.45,427.73C1962.08,428.723 1966,428.73 1969.21,427.75C1971.8,426.96 1975.75,424.3 1976.89,421.8C1978.64,417.92 1978.55,414.283 1976.61,410.89C1974,406.34 1967.71,403.62 1963.52,400.74C1952.6,393.22 1951.81,379.41 1961.13,370.21C1969.62,361.83 1983.2,361.61 1994.19,365.24C1995.63,365.713 1996.1,366.63 1995.59,367.99C1994.79,370.17 1993.88,372.473 1992.86,374.9Z" style="fill:#042653;fill-rule:nonzero;"></path>        <path d="M2194.26,373.72C2190.87,372.76 2187.19,372.483 2183.23,372.89C2178.83,373.337 2175.75,375.643 2173.98,379.81C2171.58,385.44 2174.67,390.06 2179.31,392.95C2182.53,394.957 2185.39,396.877 2187.9,398.71C2195.91,404.563 2198.47,412.21 2195.58,421.65C2193.17,429.53 2187.29,434.65 2177.94,437.01C2170.09,438.99 2161.99,438.26 2153.63,434.82C2149.42,433.09 2152.76,428.31 2154.03,425.96C2154.6,424.903 2155.94,424.499 2157.01,425.06C2162.64,428.02 2168.21,429.023 2173.7,428.07C2178.4,427.25 2182.9,423.5 2183.99,418.58C2185.39,412.18 2180.56,407.73 2175.41,404.58C2171.88,402.42 2168.34,400.45 2165.58,397.28C2159.75,390.593 2159.12,382.907 2163.71,374.22C2164.28,373.153 2165.67,371.57 2167.9,369.47C2176.46,361.4 2190.58,361.89 2201.14,365.53C2201.5,365.65 2201.65,365.9 2201.59,366.28C2201.06,369.44 2200.04,372.56 2198.51,375.64C2198.32,376.033 2198.03,376.113 2197.66,375.88C2196.46,375.12 2195.71,374.14 2194.26,373.72Z" style="fill:#042653;fill-rule:nonzero;"></path>        <path d="M1125.87,424.54C1123.1,425.25 1121.26,428.88 1119.13,430.69C1112.91,435.95 1105.26,439.03 1097.12,437.83C1080.37,435.36 1080.25,418.68 1082.87,405.81C1085.53,392.703 1088.08,379.57 1090.52,366.41C1090.76,365.123 1091.53,364.473 1092.84,364.46L1102.27,364.35C1102.3,364.35 1102.33,364.351 1102.36,364.354C1102.84,364.399 1103.19,364.831 1103.14,365.312C1103.14,365.341 1103.14,365.371 1103.13,365.4C1100,380.693 1097.21,395.727 1094.76,410.5C1094.14,414.23 1094.04,418.88 1095.87,422.24C1100.68,431.04 1111.57,427.77 1117.74,422.21C1122.71,417.73 1126.2,412.193 1128.21,405.6C1129.07,402.753 1129.78,399.727 1130.34,396.52C1132.16,385.98 1134.02,375.797 1135.92,365.97C1136.11,364.99 1136.71,364.497 1137.7,364.49L1148.06,364.45C1148.06,364.45 1148.06,364.45 1148.07,364.45C1148.47,364.45 1148.8,364.78 1148.8,365.18C1148.8,365.244 1148.79,365.308 1148.77,365.37C1148.28,367.19 1147.86,368.97 1147.51,370.71C1143.98,388.05 1140.57,406.227 1137.26,425.24C1136.65,428.747 1136.28,432.193 1136.15,435.58C1136.13,436.133 1135.85,436.433 1135.3,436.48C1131.83,436.8 1128.18,436.71 1124.36,436.21C1124.03,436.17 1123.92,435.99 1124.04,435.67C1125.25,432.317 1126.09,428.8 1126.54,425.12C1126.6,424.6 1126.38,424.407 1125.87,424.54Z" style="fill:#042653;fill-rule:nonzero;"></path>        <path d="M1287.85,364.97L1274.35,436.38C1274.32,436.527 1274.19,436.633 1274.04,436.63L1262.31,436.65C1262.14,436.648 1262,436.509 1262,436.34C1262,436.32 1262.01,436.3 1262.01,436.28L1275.59,364.6C1275.62,364.453 1275.75,364.347 1275.9,364.35L1287.55,364.6C1287.72,364.602 1287.86,364.741 1287.86,364.91C1287.86,364.93 1287.85,364.95 1287.85,364.97Z" style="fill:#042653;fill-rule:nonzero;"></path>        <path d="M1365.71,419.8C1366.1,421.853 1366.74,421.93 1367.62,420.03C1369.69,415.54 1371.36,410.77 1373.45,406.37C1379.3,394.003 1385.55,380.463 1392.2,365.75C1392.56,364.962 1393.35,364.455 1394.21,364.46L1405.31,364.5C1405.37,364.5 1405.44,364.509 1405.5,364.526C1405.86,364.629 1406.07,365.004 1405.97,365.357C1405.95,365.418 1405.92,365.476 1405.89,365.53C1404.4,367.93 1402.93,370.37 1401.72,372.91C1389.96,397.443 1379.92,417.497 1371.61,433.07C1367.8,440.217 1362.74,447.333 1356.45,454.42C1350.62,461 1343.54,465.947 1335.23,469.26C1334.12,469.7 1333.36,469.367 1332.95,468.26L1329.94,460.29C1329.68,459.604 1330.03,458.824 1330.71,458.56C1342.6,454 1351.46,446.147 1357.29,435C1357.64,434.34 1357.74,433.667 1357.6,432.98C1354.01,415.28 1350.8,400.12 1347.98,387.5C1346.53,381.013 1345.25,374.85 1344.14,369.01C1343.89,367.703 1343.85,366.313 1344,364.84C1344.03,364.553 1344.19,364.41 1344.48,364.41L1354.65,364.39C1355.34,364.389 1355.93,364.888 1356.06,365.57C1358.87,380.57 1361.7,395.623 1364.57,410.73C1365.11,413.57 1365.13,416.8 1365.71,419.8Z" style="fill:#042653;fill-rule:nonzero;"></path>        <path d="M1594.21,364.94L1580.52,436.31C1580.49,436.459 1580.36,436.568 1580.21,436.57L1568.4,436.63C1568.4,436.63 1568.4,436.63 1568.39,436.63C1568.22,436.63 1568.07,436.486 1568.07,436.31C1568.07,436.29 1568.08,436.27 1568.08,436.25L1581.76,364.6C1581.79,364.448 1581.92,364.337 1582.08,364.34L1593.9,364.56C1594.07,364.562 1594.22,364.706 1594.22,364.88C1594.22,364.9 1594.21,364.92 1594.21,364.94Z" style="fill:#042653;fill-rule:nonzero;"></path>        <path d="M1624.59,421.49C1625.51,422.157 1626.21,421.88 1626.68,420.66C1628.76,415.39 1630.68,410.29 1633.4,405.22C1640.39,392.193 1647.15,379.18 1653.69,366.18C1654.23,365.105 1655.35,364.428 1656.55,364.44L1667.55,364.55C1667.95,364.556 1668.27,364.883 1668.27,365.28C1668.27,365.422 1668.23,365.561 1668.15,365.68C1666.07,368.83 1664.01,371.91 1662.2,375.29C1651.83,394.71 1639.82,415.29 1629.03,435.29C1628.57,436.127 1627.7,436.65 1626.75,436.65L1617.66,436.65C1616.64,436.65 1616.04,436.147 1615.87,435.14L1603.93,366C1603.92,365.961 1603.92,365.922 1603.91,365.883C1603.85,365.139 1604.41,364.477 1605.15,364.415C1605.19,364.411 1605.23,364.41 1605.27,364.41L1615.08,364.43C1615.86,364.435 1616.51,365.066 1616.54,365.85C1616.72,370.76 1618.03,375.69 1618.71,380.68C1619.96,389.88 1621.64,398.84 1622.57,407.58C1623.04,411.96 1623.55,416.34 1624.12,420.72C1624.16,421.033 1624.34,421.312 1624.59,421.49Z" style="fill:#042653;fill-rule:nonzero;"></path>        <path d="M2049.51,424.14C2049.04,424.153 2048.63,424.34 2048.26,424.7C2045.65,427.247 2043.08,429.787 2040.55,432.32C2039.42,433.453 2036.48,434.9 2031.74,436.66C2024.41,439.387 2017.61,438.573 2011.36,434.22C2007.66,431.65 2005.59,426.32 2005.04,422.17C2004.53,418.37 2004.64,414.303 2005.37,409.97C2007.23,398.937 2009.66,386.33 2012.65,372.15C2013.08,370.12 2013.15,367.94 2013.5,365.89C2013.63,365.095 2014.32,364.503 2015.13,364.49L2025.07,364.36C2026.01,364.347 2026.39,364.8 2026.22,365.72C2023.64,379.26 2020.99,393.223 2018.26,407.61C2017.55,411.363 2017.38,415.013 2017.77,418.56C2018.27,423.2 2020.99,425.53 2025.03,427.12C2030.22,429.17 2036.91,425.81 2040.67,422.4C2046.75,416.893 2050.59,410.097 2052.2,402.01C2054.57,390.057 2056.93,377.983 2059.26,365.79C2059.41,364.968 2060.15,364.37 2060.99,364.38L2071.3,364.51C2071.83,364.517 2072.05,364.78 2071.94,365.3C2071.66,366.65 2071.06,368 2070.82,369.36C2068.16,384.333 2065.23,399.717 2062.04,415.51C2060.68,422.217 2059.69,428.897 2059.08,435.55C2059,436.403 2058.53,436.817 2057.68,436.79L2048.59,436.49C2047.97,436.467 2047.47,435.951 2047.47,435.331C2047.47,435.233 2047.49,435.135 2047.51,435.04L2050.16,424.95C2050.17,424.919 2050.18,424.888 2050.18,424.856C2050.22,424.507 2049.96,424.186 2049.61,424.144C2049.57,424.14 2049.54,424.139 2049.51,424.14Z" style="fill:#042653;fill-rule:nonzero;"></path>    </g>    <g id="Logo" transform="matrix(0.990015,0,0,0.990015,2.46571,-0.0458692)">        <g transform="matrix(1.13065,0,0,1.0201,-34.7725,-5.75931)">            <path d="M432.589,207.572C432.589,127.265 373.765,62.066 301.311,62.066L154.874,62.066C101.678,62.066 58.491,109.935 58.491,168.895L58.491,296.963C58.491,373.791 114.766,436.165 184.082,436.165L338.803,436.165C390.565,436.165 432.589,389.587 432.589,332.215L432.589,207.572Z" style="fill:#f58220;"></path>        </g>        <g transform="matrix(1.0201,0,0,1.0201,-3.80754,-5.75931)">            <path d="M431.898,161.778C432.355,165.888 432.589,170.065 432.589,174.296L432.589,323.935C432.589,385.877 382.301,436.165 320.36,436.165L170.72,436.165C160.101,436.165 149.824,434.687 140.085,431.926L96.839,475.171C85.68,486.33 67.56,486.33 56.4,475.171L15.961,434.732C4.802,423.573 4.802,405.452 15.961,394.293L61.296,348.959C59.46,340.911 58.491,332.536 58.491,323.935L58.491,174.296C58.491,112.355 108.779,62.066 170.72,62.066L320.36,62.066C322.667,62.066 324.958,62.136 327.23,62.274L371.38,18.124C385.465,4.039 408.337,4.039 422.423,18.124L473.465,69.167C487.551,83.253 487.551,106.124 473.465,120.21L431.898,161.778Z" style="fill:url(#_Linear1);"></path>        </g>        <g transform="matrix(1.15925,-1.15925,0.903309,0.903309,-329.322,444.908)">            <path d="M312.146,178.848L478.57,178.848C484.957,178.848 490.143,185.502 490.143,193.699L490.143,223.401C490.143,231.598 484.957,238.252 478.57,238.252L273.872,238.252C267.485,238.252 262.3,231.598 262.3,223.401L262.3,193.699C262.3,192.864 262.353,192.046 262.457,191.249L262.457,147.345C262.457,138.546 268.023,131.403 274.879,131.403L299.724,131.403C306.58,131.403 312.146,138.546 312.146,147.345L312.146,178.848Z" style="fill:#fff;"></path>        </g>    </g>    <defs>        <linearGradient id="_Linear1" x1="0" y1="0" x2="1" y2="0" gradientUnits="userSpaceOnUse" gradientTransform="matrix(410.956,-412.798,412.798,410.956,40.5804,457.134)"><stop offset="0" style="stop-color:#042653;stop-opacity:1"></stop><stop offset="0.52" style="stop-color:#01407f;stop-opacity:1"></stop><stop offset="1" style="stop-color:#004a8f;stop-opacity:1"></stop></linearGradient>    </defs></svg>