<svg xmlns="http://www.w3.org/2000/svg" xmlns:xlink="http://www.w3.org/1999/xlink" xmlns:serif="http://www.serif.com/" width="100%" height="100%" viewBox="0 0 482 481" xml:space="preserve" style="fill-rule:evenodd;clip-rule:evenodd;stroke-linejoin:round;stroke-miterlimit:2;">    <g transform="matrix(1,0,0,1,-0.19994,-1.88745)">        <g id="Logo" transform="matrix(0.990015,0,0,0.990015,-3.69746,-0.0458692)">            <g transform="matrix(1.0201,0,0,1.0201,-3.80754,-5.75931)">                <path d="M140.085,431.926L96.839,475.171C85.68,486.33 67.56,486.33 56.4,475.171L15.961,434.732C4.802,423.573 4.802,405.452 15.961,394.293L61.296,348.959C59.46,340.911 58.491,332.536 58.491,323.935L58.491,174.296C58.491,112.355 108.779,62.066 170.72,62.066L320.36,62.066C322.667,62.066 324.958,62.136 327.23,62.274L371.38,18.124C385.465,4.039 408.337,4.039 422.423,18.124L473.465,69.167C487.551,83.253 487.551,106.124 473.465,120.21L431.898,161.778C432.355,165.888 432.589,170.065 432.589,174.296L432.589,323.935C432.589,385.877 382.301,436.165 320.36,436.165L170.72,436.165C161.926,436.165 153.367,435.151 145.154,433.235C143.449,432.837 141.759,432.4 140.085,431.926ZM147.137,407.051C148.423,407.415 149.72,407.75 151.029,408.056C157.355,409.532 163.947,410.31 170.72,410.31L320.36,410.31C368.031,410.31 406.734,371.607 406.734,323.935L406.734,174.296C406.734,171.031 406.553,167.807 406.201,164.635C405.333,156.828 408.061,149.05 413.615,143.495L455.183,101.928C459.178,97.932 459.178,91.445 455.183,87.45L404.14,36.407C400.145,32.412 393.658,32.412 389.662,36.407L345.513,80.556C340.28,85.789 333.056,88.529 325.669,88.082C323.913,87.976 322.142,87.922 320.36,87.922L170.72,87.922C123.049,87.922 84.346,126.625 84.346,174.296L84.346,323.935C84.346,330.559 85.09,337.011 86.504,343.209C88.481,351.878 85.865,360.954 79.578,367.241L34.244,412.576C33.175,413.645 33.175,415.38 34.244,416.449L74.683,456.888C75.752,457.957 77.488,457.957 78.557,456.888L121.802,413.643C128.429,407.017 138.122,404.494 147.137,407.051Z" style="fill:#fff;"></path>            </g>            <g transform="matrix(1.01009,0,0,1.01009,3.73475,0.0463318)">                <path d="M164.946,56.934C102.391,56.934 51.604,107.721 51.604,170.276L51.604,321.4C51.604,330.085 52.583,338.544 54.436,346.671L42.817,358.29C32.931,339.057 27.35,317.255 27.35,294.159L27.35,164.822C27.35,105.277 75.692,56.934 135.237,56.934L164.946,56.934ZM316.069,434.742C378.624,434.742 429.411,383.955 429.411,321.4L429.411,170.276C429.411,166.003 429.174,161.785 428.713,157.634L436.022,150.326C442.529,166.923 446.102,184.989 446.102,203.883L446.102,329.761C446.102,387.702 399.062,434.742 341.121,434.742L316.069,434.742Z" style="fill:#f58220;"></path>            </g>            <g transform="matrix(1.15925,-1.15925,0.903309,0.903309,-329.322,444.908)">                <path d="M312.146,178.848L478.57,178.848C484.957,178.848 490.143,185.502 490.143,193.699L490.143,223.401C490.143,231.598 484.957,238.252 478.57,238.252L273.872,238.252C267.485,238.252 262.3,231.598 262.3,223.401L262.3,193.699C262.3,192.864 262.353,192.046 262.457,191.249L262.457,147.345C262.457,138.546 268.023,131.403 274.879,131.403L299.724,131.403C306.58,131.403 312.146,138.546 312.146,147.345L312.146,178.848Z" style="fill:#fff;"></path>            </g>        </g>    </g></svg>