<?xml version="1.0" standalone="no"?>
<!DOCTYPE svg PUBLIC "-//W3C//DTD SVG 20010904//EN"
 "http://www.w3.org/TR/2001/REC-SVG-20010904/DTD/svg10.dtd">
<svg version="1.0" xmlns="http://www.w3.org/2000/svg"
 width="512.000000pt" height="512.000000pt" viewBox="0 0 512.000000 512.000000"
 preserveAspectRatio="xMidYMid meet">

<g transform="translate(0.000000,512.000000) scale(0.100000,-0.100000)"
fill="#000000" stroke="none">
<path d="M3740 5025 c-457 -77 -822 -428 -914 -876 l-13 -64 -1179 -5 c-1178
-5 -1179 -5 -1231 -27 -163 -66 -267 -181 -308 -340 -13 -50 -15 -268 -15
-1633 0 -1734 -4 -1629 61 -1751 62 -115 197 -214 328 -239 74 -14 3788 -14
3862 0 184 35 345 196 379 379 6 34 10 535 10 1360 l1 1306 69 85 c153 188
235 408 247 660 22 493 -293 946 -768 1104 -157 53 -366 69 -529 41z m399
-170 c177 -43 319 -124 456 -260 136 -136 206 -257 257 -445 32 -118 32 -336
0 -458 -46 -177 -128 -320 -256 -448 -129 -130 -269 -209 -449 -256 -111 -29
-338 -31 -442 -4 -190 50 -326 127 -460 261 -136 137 -206 259 -256 445 -30
110 -33 337 -6 444 45 179 128 327 257 457 149 152 319 241 530 278 74 13 290
5 369 -14z m-1339 -962 c0 -16 3 -52 6 -80 l7 -53 -567 0 -566 0 0 -80 0 -80
583 0 583 0 31 -80 31 -80 -614 0 -614 0 0 -80 0 -80 663 -1 662 -1 63 -79 63
-79 -1446 0 -1446 0 3 283 c3 277 3 283 28 332 43 86 125 154 215 176 17 4
544 7 1173 8 l1142 1 0 -27z m1758 -2403 l-3 -1015 -34 -63 c-38 -70 -69 -100
-145 -140 l-51 -27 -1925 0 -1925 0 -63 34 c-69 37 -109 79 -144 151 l-23 45
-3 1083 -2 1082 1498 0 c1693 0 1557 -7 1635 80 44 49 67 103 67 158 l0 30 75
-29 c146 -57 235 -73 405 -73 138 0 167 3 265 28 110 28 259 91 331 140 l39
26 3 -247 c1 -137 1 -705 0 -1263z m-3678 1390 l0 -80 -320 0 -320 0 0 80 0
80 320 0 320 0 0 -80z m800 0 l0 -80 -320 0 -320 0 0 80 0 80 320 0 320 0 0
-80z m800 0 l0 -80 -320 0 -320 0 0 80 0 80 320 0 320 0 0 -80z m800 25 c0
-46 -4 -60 -25 -80 l-24 -25 -296 0 -295 0 0 80 0 80 320 0 320 0 0 -55z"/>
<path d="M3770 4706 c-279 -60 -505 -251 -598 -508 -108 -300 -39 -620 184
-842 359 -359 956 -296 1234 131 89 136 125 259 125 433 0 174 -36 298 -124
432 -114 174 -272 288 -481 345 -78 21 -260 26 -340 9z m70 -231 l0 -75 80 0
80 0 0 75 c0 85 -1 84 85 61 68 -18 121 -41 178 -78 l48 -31 -63 -64 -63 -63
58 -57 57 -58 63 63 64 63 31 -48 c37 -57 60 -110 78 -178 23 -86 24 -85 -61
-85 l-75 0 0 -80 0 -80 75 0 c85 0 84 1 61 -85 -18 -68 -41 -121 -78 -178
l-31 -48 -64 63 -63 63 -57 -58 -58 -57 63 -63 63 -64 -48 -31 c-57 -37 -110
-60 -178 -78 -86 -23 -85 -24 -85 61 l0 75 -80 0 -80 0 0 -75 c0 -85 1 -84
-85 -61 -68 18 -121 41 -178 78 l-48 31 63 64 63 63 -58 57 -57 58 -63 -63
-64 -63 -31 48 c-37 57 -60 110 -78 178 -23 86 -24 85 61 85 l75 0 0 80 0 80
-75 0 c-85 0 -84 -1 -61 85 18 68 41 121 78 178 l31 48 64 -63 63 -63 57 58
58 57 -63 63 -63 64 48 31 c74 48 183 89 241 91 21 1 22 -3 22 -74z"/>
<path d="M3840 4063 l0 -176 130 -131 130 -131 57 57 58 58 -108 108 -107 107
0 143 0 142 -80 0 -80 0 0 -177z"/>
<path d="M560 3747 c-19 -6 -58 -34 -85 -62 -71 -70 -91 -145 -63 -239 16 -55
99 -138 154 -154 94 -28 169 -8 239 63 102 101 102 229 0 330 -70 71 -152 91
-245 62z m135 -172 c50 -49 15 -135 -55 -135 -41 0 -80 39 -80 80 0 41 39 80
80 80 19 0 40 -9 55 -25z"/>
<path d="M1200 3747 c-19 -6 -58 -34 -85 -62 -71 -70 -91 -145 -63 -239 16
-55 99 -138 154 -154 94 -28 169 -8 239 63 102 101 102 229 0 330 -70 71 -152
91 -245 62z m135 -172 c50 -49 15 -135 -55 -135 -41 0 -80 39 -80 80 0 41 39
80 80 80 19 0 40 -9 55 -25z"/>
<path d="M805 2071 c-90 -22 -173 -90 -215 -176 -34 -69 -35 -198 -2 -265 34
-71 75 -113 144 -151 l63 -34 1282 -5 1283 -5 -160 -267 c-99 -164 -160 -276
-160 -293 0 -33 41 -75 75 -75 14 0 129 52 255 115 l230 115 230 -115 c126
-63 241 -115 255 -115 34 0 75 42 75 75 0 17 -61 129 -160 293 l-160 267 84 7
c69 5 97 13 146 39 68 36 99 68 138 143 22 43 26 64 26 136 1 78 -2 90 -33
148 -37 69 -79 109 -151 144 l-45 23 -1585 2 c-872 0 -1598 -2 -1615 -6z
m2315 -311 l0 -160 -1135 0 c-1241 0 -1175 -3 -1228 59 -66 79 -36 206 58 247
24 11 244 13 1168 14 l1137 0 0 -160z m886 134 c53 -39 69 -71 69 -134 0 -63
-16 -95 -69 -134 -23 -18 -45 -21 -146 -24 l-118 -4 -42 70 c-71 121 -129 121
-200 1 l-41 -69 -89 0 -90 0 0 160 0 161 349 -3 c335 -3 351 -4 377 -24z
m-276 -584 c69 -116 127 -215 129 -221 1 -5 -51 17 -118 50 -66 34 -130 61
-141 61 -11 0 -75 -27 -141 -61 -67 -33 -119 -55 -118 -50 7 20 254 430 259
430 3 0 61 -94 130 -209z"/>
</g>
</svg>
